<svg width="40" height="41" viewBox="0 0 40 41" fill="none" xmlns="http://www.w3.org/2000/svg">
<rect x="0.5" y="1" width="39" height="39" rx="7.5" stroke="#EFEFEF"/>
<path d="M28.3333 17.6V13.8167C28.3333 12.6417 27.8 12.1667 26.475 12.1667H23.1083C21.7833 12.1667 21.25 12.6417 21.25 13.8167V17.5917C21.25 18.775 21.7833 19.2417 23.1083 19.2417H26.475C27.8 19.25 28.3333 18.775 28.3333 17.6Z" stroke="#858585" stroke-width="1.5" stroke-linecap="round" stroke-linejoin="round"/>
<path d="M28.3333 26.975V23.6083C28.3333 22.2833 27.8 21.75 26.475 21.75H23.1083C21.7833 21.75 21.25 22.2833 21.25 23.6083V26.975C21.25 28.3 21.7833 28.8333 23.1083 28.8333H26.475C27.8 28.8333 28.3333 28.3 28.3333 26.975Z" stroke="#858585" stroke-width="1.5" stroke-linecap="round" stroke-linejoin="round"/>
<path d="M18.75 17.6V13.8167C18.75 12.6417 18.2167 12.1667 16.8917 12.1667H13.525C12.2 12.1667 11.6667 12.6417 11.6667 13.8167V17.5917C11.6667 18.775 12.2 19.2417 13.525 19.2417H16.8917C18.2167 19.25 18.75 18.775 18.75 17.6Z" stroke="#858585" stroke-width="1.5" stroke-linecap="round" stroke-linejoin="round"/>
<path d="M18.75 26.975V23.6083C18.75 22.2833 18.2167 21.75 16.8917 21.75H13.525C12.2 21.75 11.6667 22.2833 11.6667 23.6083V26.975C11.6667 28.3 12.2 28.8333 13.525 28.8333H16.8917C18.2167 28.8333 18.75 28.3 18.75 26.975Z" stroke="#858585" stroke-width="1.5" stroke-linecap="round" stroke-linejoin="round"/>
</svg>
