<svg width="18" height="18" viewBox="0 0 18 18" fill="none" xmlns="http://www.w3.org/2000/svg">
<path d="M7.45759 1.50844L1.91442 6.03298C1.29051 6.53843 0.890572 7.60642 1.02655 8.40535L2.09039 14.8946C2.28236 16.0522 3.37019 16.9897 4.52202 16.9897H13.4807C14.6245 16.9897 15.7203 16.0441 15.9123 14.8946L16.9761 8.40535C17.1041 7.60642 16.7042 6.53843 16.0883 6.03298L10.5451 1.5166C9.68924 0.815498 8.30546 0.81549 7.45759 1.50844Z" stroke="#6B788E" stroke-width="1.3" stroke-linecap="round" stroke-linejoin="round"/>
<path d="M9.00128 11.8456C10.1057 11.8456 11.001 10.9331 11.001 9.8075C11.001 8.68189 10.1057 7.76941 9.00128 7.76941C7.89688 7.76941 7.00159 8.68189 7.00159 9.8075C7.00159 10.9331 7.89688 11.8456 9.00128 11.8456Z" stroke="#6B788E" stroke-width="1.3" stroke-linecap="round" stroke-linejoin="round"/>
</svg>
