<svg width="16" height="17" viewBox="0 0 16 17" fill="none" xmlns="http://www.w3.org/2000/svg">
<path fill-rule="evenodd" clip-rule="evenodd" d="M2.33344 10.289C2.33344 10.5582 2.10943 10.7767 1.83349 10.7767C1.55754 10.7767 1.33354 10.5582 1.33354 10.289V5.46598C1.33354 3.91679 2.62561 2.6564 4.21441 2.6564H7.37838C8.97042 2.6564 10.2657 3.91995 10.2657 5.47295V6.06261C10.2657 6.33115 10.0417 6.54966 9.76579 6.54966C9.48985 6.54966 9.26585 6.33115 9.26585 6.06261V5.47295C9.26585 4.45704 8.41918 3.63177 7.37838 3.63177H4.21441C3.17686 3.63177 2.33344 4.45514 2.33344 5.46598V10.289ZM9.26565 11.9175C9.26565 11.6483 9.48965 11.4298 9.7656 11.4298C10.0415 11.4298 10.2655 11.6483 10.2655 11.9175V12.5135C10.2655 14.0627 8.97347 15.3231 7.38467 15.3231H4.22006C2.62867 15.3231 1.33334 14.0595 1.33334 12.5065C1.33334 12.2373 1.55735 12.0195 1.83329 12.0195C2.10924 12.0195 2.33324 12.2373 2.33324 12.5065C2.33324 13.5224 3.17991 14.3477 4.22006 14.3477H7.38467C8.42223 14.3477 9.26565 13.525 9.26565 12.5135V11.9175ZM14.6289 8.80366C14.5516 8.62061 14.3692 8.50154 14.1666 8.50154H6.36608C6.09013 8.50154 5.86548 8.72069 5.86548 8.98986C5.86548 9.25904 6.09013 9.47755 6.36608 9.47755H12.9563L11.9168 10.4871C11.7207 10.6771 11.7207 10.9856 11.9155 11.1769C12.0129 11.2725 12.1415 11.3206 12.2694 11.3206C12.3973 11.3206 12.5245 11.2725 12.6226 11.1781L14.5198 9.33568C14.6626 9.19634 14.7061 8.98606 14.6289 8.80366ZM12.7479 8.09689C12.6206 8.09689 12.4934 8.04939 12.396 7.95565L11.9175 7.49393C11.7214 7.30456 11.7201 6.99548 11.9142 6.80484C12.109 6.6123 12.4245 6.61103 12.6213 6.80104L13.0992 7.26212C13.2959 7.45213 13.2972 7.76058 13.1031 7.95185C13.005 8.04812 12.8765 8.09689 12.7479 8.09689Z" fill="#091E42"/>
</svg>
