<svg width="4" height="16" viewBox="0 0 4 16" fill="none" xmlns="http://www.w3.org/2000/svg">
<path d="M1.99999 8.83334C2.46023 8.83334 2.83332 8.46025 2.83332 8.00001C2.83332 7.53977 2.46023 7.16668 1.99999 7.16668C1.53975 7.16668 1.16666 7.53977 1.16666 8.00001C1.16666 8.46025 1.53975 8.83334 1.99999 8.83334Z" stroke="#98A2B3" stroke-width="1.66667" stroke-linecap="round" stroke-linejoin="round"/>
<path d="M1.99999 3.00001C2.46023 3.00001 2.83332 2.62691 2.83332 2.16668C2.83332 1.70644 2.46023 1.33334 1.99999 1.33334C1.53975 1.33334 1.16666 1.70644 1.16666 2.16668C1.16666 2.62691 1.53975 3.00001 1.99999 3.00001Z" stroke="#98A2B3" stroke-width="1.66667" stroke-linecap="round" stroke-linejoin="round"/>
<path d="M1.99999 14.6667C2.46023 14.6667 2.83332 14.2936 2.83332 13.8333C2.83332 13.3731 2.46023 13 1.99999 13C1.53975 13 1.16666 13.3731 1.16666 13.8333C1.16666 14.2936 1.53975 14.6667 1.99999 14.6667Z" stroke="#98A2B3" stroke-width="1.66667" stroke-linecap="round" stroke-linejoin="round"/>
</svg>
