<svg width="11" height="3" viewBox="0 0 11 3" fill="none" xmlns="http://www.w3.org/2000/svg">
<path d="M1.47869 2.09446C1.20691 2.09446 0.973248 1.99834 0.777699 1.80611C0.58215 1.61056 0.484375 1.37524 0.484375 1.10014C0.484375 0.828362 0.58215 0.596354 0.777699 0.404119C0.973248 0.20857 1.20691 0.110795 1.47869 0.110795C1.75047 0.110795 1.98414 0.20857 2.17969 0.404119C2.37524 0.596354 2.47301 0.828362 2.47301 1.10014C2.47301 1.28243 2.42661 1.44981 2.33381 1.60227C2.24432 1.75142 2.125 1.87074 1.97585 1.96023C1.8267 2.04972 1.66098 2.09446 1.47869 2.09446ZM5.44354 2.09446C5.17176 2.09446 4.93809 1.99834 4.74254 1.80611C4.54699 1.61056 4.44922 1.37524 4.44922 1.10014C4.44922 0.828362 4.54699 0.596354 4.74254 0.404119C4.93809 0.20857 5.17176 0.110795 5.44354 0.110795C5.71532 0.110795 5.94898 0.20857 6.14453 0.404119C6.34008 0.596354 6.43786 0.828362 6.43786 1.10014C6.43786 1.28243 6.39145 1.44981 6.29865 1.60227C6.20916 1.75142 6.08984 1.87074 5.9407 1.96023C5.79155 2.04972 5.62583 2.09446 5.44354 2.09446ZM9.40838 2.09446C9.1366 2.09446 8.90294 1.99834 8.70739 1.80611C8.51184 1.61056 8.41406 1.37524 8.41406 1.10014C8.41406 0.828362 8.51184 0.596354 8.70739 0.404119C8.90294 0.20857 9.1366 0.110795 9.40838 0.110795C9.68016 0.110795 9.91383 0.20857 10.1094 0.404119C10.3049 0.596354 10.4027 0.828362 10.4027 1.10014C10.4027 1.28243 10.3563 1.44981 10.2635 1.60227C10.174 1.75142 10.0547 1.87074 9.90554 1.96023C9.75639 2.04972 9.59067 2.09446 9.40838 2.09446Z" fill="#667085"/>
</svg>
