<svg width="20" height="21" viewBox="0 0 20 21" fill="none" xmlns="http://www.w3.org/2000/svg">
<path d="M6.66673 19.3231H13.3334C16.6834 19.3231 17.2834 17.9814 17.4584 16.3481L18.0834 9.68141C18.3084 7.64808 17.7251 5.98975 14.1667 5.98975H5.83339C2.27506 5.98975 1.69173 7.64808 1.91673 9.68141L2.54173 16.3481C2.71673 17.9814 3.31673 19.3231 6.66673 19.3231Z" stroke="#6B788E" stroke-width="1.2" stroke-miterlimit="10" stroke-linecap="round" stroke-linejoin="round"/>
<path d="M6.66663 5.98974V5.32307C6.66663 3.84807 6.66663 2.6564 9.33329 2.6564H10.6666C13.3333 2.6564 13.3333 3.84807 13.3333 5.32307V5.98974" stroke="#6B788E" stroke-width="1.2" stroke-miterlimit="10" stroke-linecap="round" stroke-linejoin="round"/>
<path d="M11.6667 11.8231V12.6564C11.6667 12.6647 11.6667 12.6647 11.6667 12.6731C11.6667 13.5814 11.6584 14.3231 10 14.3231C8.35004 14.3231 8.33337 13.5897 8.33337 12.6814V11.8231C8.33337 10.9897 8.33337 10.9897 9.16671 10.9897H10.8334C11.6667 10.9897 11.6667 10.9897 11.6667 11.8231Z" stroke="#6B788E" stroke-width="1.2" stroke-miterlimit="10" stroke-linecap="round" stroke-linejoin="round"/>
<path d="M18.0416 10.1564C16.1166 11.5564 13.9166 12.3897 11.6666 12.6731" stroke="#6B788E" stroke-width="1.2" stroke-miterlimit="10" stroke-linecap="round" stroke-linejoin="round"/>
<path d="M2.18335 10.3814C4.05835 11.6647 6.17502 12.4397 8.33335 12.6814" stroke="#6B788E" stroke-width="1.2" stroke-miterlimit="10" stroke-linecap="round" stroke-linejoin="round"/>
</svg>
