<svg width="16" height="18" viewBox="0 0 16 18" fill="none" xmlns="http://www.w3.org/2000/svg">
<path d="M9.33382 16.5531L13.884 13.9261C14.3698 13.6456 14.6122 13.5054 14.7888 13.3092C14.9451 13.1356 15.0632 12.9312 15.1354 12.7091C15.2168 12.4586 15.2168 12.1787 15.2168 11.6204V6.35864C15.2168 5.80039 15.2168 5.52053 15.1354 5.27006C15.0632 5.04793 14.9451 4.84331 14.7888 4.66974C14.6129 4.47442 14.3711 4.33479 13.8895 4.05677L9.33301 1.42607C8.84727 1.14563 8.60489 1.00569 8.34668 0.950807C8.11822 0.902247 7.88202 0.902247 7.65356 0.950807C7.39536 1.00569 7.15216 1.14563 6.66642 1.42607L2.11536 4.05363C1.63019 4.33374 1.38779 4.47369 1.21126 4.66974C1.05498 4.84331 0.936951 5.04793 0.864776 5.27006C0.783203 5.52112 0.783203 5.80171 0.783203 6.36259V11.6167C0.783203 12.1776 0.783203 12.458 0.864776 12.7091C0.936951 12.9312 1.05498 13.1356 1.21126 13.3092C1.3879 13.5054 1.63047 13.6456 2.11621 13.9261L6.66642 16.5531C7.15215 16.8336 7.39536 16.9736 7.65356 17.0285C7.88202 17.077 8.11822 17.077 8.34668 17.0285C8.60488 16.9736 8.84809 16.8336 9.33382 16.5531Z" stroke="#6B788E" stroke-width="1.2" stroke-linecap="round" stroke-linejoin="round"/>
<path d="M5.5 8.98954C5.5 10.3703 6.61929 11.4895 8 11.4895C9.38071 11.4895 10.5 10.3703 10.5 8.98954C10.5 7.60883 9.38071 6.48954 8 6.48954C6.61929 6.48954 5.5 7.60883 5.5 8.98954Z" stroke="#6B788E" stroke-width="1.2" stroke-linecap="round" stroke-linejoin="round"/>
</svg>
