<svg width="20" height="21" viewBox="0 0 20 21" fill="none" xmlns="http://www.w3.org/2000/svg">
<path d="M14.6624 10.0996C15.9976 10.0996 17.0808 9.01721 17.0808 7.68193C17.0808 6.34665 15.9976 5.26422 14.6624 5.26422" stroke="#DFE2E6" stroke-width="1.5" stroke-linecap="round" stroke-linejoin="round"/>
<path d="M15.7743 12.7271C16.173 12.7546 16.5695 12.8111 16.9598 12.8989C17.5022 13.0051 18.1546 13.2274 18.3868 13.714C18.535 14.0257 18.535 14.3885 18.3868 14.7009C18.1553 15.1875 17.5022 15.4091 16.9598 15.5206" stroke="#F5F6F7" stroke-width="1.5" stroke-linecap="round" stroke-linejoin="round"/>
<path d="M5.24171 10.0996C3.90644 10.0996 2.82324 9.01721 2.82324 7.68193C2.82324 6.34665 3.90644 5.26422 5.24171 5.26422" stroke="#DFE2E6" stroke-width="1.5" stroke-linecap="round" stroke-linejoin="round"/>
<path d="M4.12983 12.7271C3.73108 12.7546 3.33462 12.8111 2.94427 12.8989C2.40191 13.0051 1.74955 13.2274 1.51809 13.714C1.36913 14.0257 1.36913 14.3885 1.51809 14.7009C1.74879 15.1875 2.40191 15.4091 2.94427 15.5206" stroke="#F5F6F7" stroke-width="1.5" stroke-linecap="round" stroke-linejoin="round"/>
<path fill-rule="evenodd" clip-rule="evenodd" d="M9.94813 13.2477C12.6538 13.2477 14.9654 13.6572 14.9654 15.2957C14.9654 16.9335 12.6691 17.3582 9.94813 17.3582C7.24167 17.3582 4.93091 16.9488 4.93091 15.3102C4.93091 13.6717 7.22716 13.2477 9.94813 13.2477Z" stroke="#F5F6F7" stroke-width="1.5" stroke-linecap="round" stroke-linejoin="round"/>
<path fill-rule="evenodd" clip-rule="evenodd" d="M9.94812 10.9105C8.16367 10.9105 6.73291 9.47976 6.73291 7.69455C6.73291 5.9101 8.16367 4.47934 9.94812 4.47934C11.7326 4.47934 13.1633 5.9101 13.1633 7.69455C13.1633 9.47976 11.7326 10.9105 9.94812 10.9105Z" stroke="#DFE2E6" stroke-width="1.5" stroke-linecap="round" stroke-linejoin="round"/>
</svg>
